<?xml version="1.0" encoding="UTF-8" standalone="no"?>
<svg
   width="865.76"
   height="682.89"
   viewBox="0 0 865.76 682.89"
   version="1.1"
   id="svg1344"
   sodipodi:docname="intro.svg"
   inkscape:version="1.2.2 (732a01da63, 2022-12-09)"
   xmlns:inkscape="http://www.inkscape.org/namespaces/inkscape"
   xmlns:sodipodi="http://sodipodi.sourceforge.net/DTD/sodipodi-0.dtd"
   xmlns="http://www.w3.org/2000/svg"
   xmlns:svg="http://www.w3.org/2000/svg">
  <defs
     id="defs1348" />
  <sodipodi:namedview
     id="namedview1346"
     pagecolor="#ffffff"
     bordercolor="#000000"
     borderopacity="0.25"
     inkscape:showpageshadow="2"
     inkscape:pageopacity="0.0"
     inkscape:pagecheckerboard="0"
     inkscape:deskcolor="#d1d1d1"
     showgrid="false"
     inkscape:zoom="2.4279166"
     inkscape:cx="501.66468"
     inkscape:cy="548.61852"
     inkscape:window-width="1920"
     inkscape:window-height="1009"
     inkscape:window-x="-8"
     inkscape:window-y="-8"
     inkscape:window-maximized="1"
     inkscape:current-layer="svg1344" />
  <rect
     x="-417.76825"
     y="338.79001"
     width="4.2800002"
     height="4.2800002"
     fill="#f0f0f0"
     id="rect518"
     transform="scale(-1,1)" />
  <rect
     x="-417.76825"
     y="345.97"
     width="4.2800002"
     height="4.2800002"
     fill="#f0f0f0"
     id="rect520"
     transform="scale(-1,1)" />
  <rect
     x="-417.76825"
     y="467.97"
     width="4.2800002"
     height="4.2800002"
     fill="#f0f0f0"
     id="rect554"
     transform="scale(-1,1)" />
  <rect
     x="-417.76825"
     y="475.13"
     width="4.2800002"
     height="4.2800002"
     fill="#f0f0f0"
     id="rect556"
     transform="scale(-1,1)" />
  <rect
     x="-417.76825"
     y="482.31"
     width="4.2800002"
     height="4.2800002"
     fill="#f0f0f0"
     id="rect558"
     transform="scale(-1,1)" />
  <rect
     x="-417.76825"
     y="489.48999"
     width="4.2800002"
     height="4.2800002"
     fill="#f0f0f0"
     id="rect560"
     transform="scale(-1,1)" />
  <rect
     x="-417.76825"
     y="496.66"
     width="4.2800002"
     height="4.2800002"
     fill="#f0f0f0"
     id="rect562"
     transform="scale(-1,1)" />
  <rect
     x="-424.56824"
     y="338.79001"
     width="4.2800002"
     height="4.2800002"
     fill="#f0f0f0"
     id="rect564"
     transform="scale(-1,1)" />
  <rect
     x="-424.56824"
     y="345.97"
     width="4.2800002"
     height="4.2800002"
     fill="#f0f0f0"
     id="rect566"
     transform="scale(-1,1)" />
  <rect
     x="-424.56824"
     y="467.97"
     width="4.2800002"
     height="4.2800002"
     fill="#f0f0f0"
     id="rect600"
     transform="scale(-1,1)" />
  <rect
     x="-431.36823"
     y="338.79001"
     width="4.2800002"
     height="4.2800002"
     fill="#f0f0f0"
     id="rect602"
     transform="scale(-1,1)" />
  <rect
     x="-431.36823"
     y="345.97"
     width="4.2800002"
     height="4.2800002"
     fill="#f0f0f0"
     id="rect604"
     transform="scale(-1,1)" />
  <rect
     x="-431.36823"
     y="467.97"
     width="4.2800002"
     height="4.2800002"
     fill="#f0f0f0"
     id="rect638"
     transform="scale(-1,1)" />
  <rect
     x="-438.16824"
     y="338.79001"
     width="4.2800002"
     height="4.2800002"
     fill="#f0f0f0"
     id="rect640"
     transform="scale(-1,1)" />
  <rect
     x="-438.16824"
     y="345.97"
     width="4.2800002"
     height="4.2800002"
     fill="#f0f0f0"
     id="rect642"
     transform="scale(-1,1)" />
  <rect
     x="-444.96823"
     y="338.79001"
     width="4.2800002"
     height="4.2800002"
     fill="#f0f0f0"
     id="rect670"
     transform="scale(-1,1)" />
  <rect
     x="-444.96823"
     y="345.97"
     width="4.2800002"
     height="4.2800002"
     fill="#f0f0f0"
     id="rect672"
     transform="scale(-1,1)" />
  <rect
     x="-451.76825"
     y="338.79001"
     width="4.2800002"
     height="4.2800002"
     fill="#f0f0f0"
     id="rect696"
     transform="scale(-1,1)" />
  <rect
     x="-451.76825"
     y="345.97"
     width="4.2800002"
     height="4.2800002"
     fill="#f0f0f0"
     id="rect698"
     transform="scale(-1,1)" />
  <path
     d="m 561.20823,513.05 h -44.27 a 7.57,7.57 0 0 0 -7.57,7.57 v 0 85.56 h 59.39 v -85.49 a 7.56,7.56 0 0 0 -7.5,-7.64 z"
     fill="#f0f0f0"
     id="path1134" />
  <rect
     x="-568.75824"
     y="525.71997"
     width="59.400002"
     height="6.6799998"
     fill="#e6e6e6"
     id="rect1136"
     transform="scale(-1,1)" />
  <path
     d="m 534.97823,595 h -14.8 a 4.07,4.07 0 0 0 -4.07,4.07 v 7.21 h 23 V 599 a 4.07,4.07 0 0 0 -4.07,-4.07 z"
     fill="#e0e0e0"
     id="path1138" />
  <path
     d="m 516.03823,606.25 h 16.46 a 2.64,2.64 0 0 0 2.64,-2.64 v 0 a 2.64,2.64 0 0 0 -2.64,-2.63 h -16.46 a 2.64,2.64 0 0 0 -2.64,2.63 v 0 a 2.64,2.64 0 0 0 2.64,2.64 z"
     fill="#e6e6e6"
     id="path1140" />
  <path
     d="m 648.62823,488.39 c 3.09,-5.15 8.17,-0.67 8.17,-0.67 -0.72,-9.76 8.25,-16.42 8.25,-16.42 0,0 -10.43,0 -11.87,-9.94 -1.44,-9.94 3.62,-5.32 8.4,-5.39 4.78,-0.07 9.77,13.87 3.43,21.72 -6.34,7.85 -4.6,21.24 9.94,34.12 a 28.5,28.5 0 0 1 7.59,11.85 c -1.09,-11.83 -1.71,-28.51 1.72,-39.63 5.91,-18.89 -5.36,-24 -8.58,-33.45 -3.22,-9.45 8.58,-17.45 8.58,-17.45 0,0 -11.18,-5.15 -5.72,-10.9 5.46,-5.75 16.73,-5 16.73,2.57 0,7.57 -7.64,10.51 -7.64,10.51 0,0 -8.73,9.08 -8.73,13.74 0,4.66 8.73,14.95 8.73,14.95 0,0 -4,-8.7 4,-9.06 8,-0.36 10.54,10.16 7.26,14.88 -3.28,4.72 -8.72,0.74 -8.72,0.74 a 93.22,93.22 0 0 1 -2.54,16.3 c -0.83,2.73 -0.45,13.39 0.24,24.49 a 27.65,27.65 0 0 1 7.09,-10.51 c 14.55,-12.88 16.23,-26.28 9.93,-34.12 -6.3,-7.84 -1.26,-21.79 3.44,-21.72 4.7,0.07 9.87,-4.56 8.41,5.38 -1.46,9.94 -11.88,10 -11.88,10 0,0 9,6.66 8.26,16.41 0,0 5.15,-4.43 8.17,0.67 5.52,9.09 -7.28,14.72 -9.42,10.31 0,0 -27.12,19.19 -20.61,46.82 l -1.51,2.25 c 0.19,2.24 0.31,3.57 0.31,3.57 l -2.11,-0.91 -2.42,3.5 a 84.71,84.71 0 0 1 -0.62,12 l -6.47,-9.58 c 6.54,-27.63 -20.61,-46.83 -20.61,-46.83 -1.98,4.53 -14.75,-1.12 -9.2,-10.2 z"
     fill="#e0e0e0"
     id="path1150" />
  <path
     d="m 648.62823,488.39 c 3.09,-5.15 8.17,-0.67 8.17,-0.67 -0.72,-9.76 8.25,-16.42 8.25,-16.42 0,0 -10.43,0 -11.87,-9.94 -1.44,-9.94 3.62,-5.32 8.4,-5.39 4.78,-0.07 9.77,13.87 3.43,21.72 -6.34,7.85 -4.6,21.24 9.94,34.12 a 28.5,28.5 0 0 1 7.59,11.85 c -1.09,-11.83 -1.71,-28.51 1.72,-39.63 5.91,-18.89 -5.36,-24 -8.58,-33.45 -3.22,-9.45 8.58,-17.45 8.58,-17.45 0,0 -11.18,-5.15 -5.72,-10.9 5.46,-5.75 16.73,-5 16.73,2.57 0,7.57 -7.64,10.51 -7.64,10.51 0,0 -8.73,9.08 -8.73,13.74 0,4.66 8.73,14.95 8.73,14.95 0,0 -4,-8.7 4,-9.06 8,-0.36 10.54,10.16 7.26,14.88 -3.28,4.72 -8.72,0.74 -8.72,0.74 a 93.22,93.22 0 0 1 -2.54,16.3 c -0.83,2.73 -0.45,13.39 0.24,24.49 a 27.65,27.65 0 0 1 7.09,-10.51 c 14.55,-12.88 16.23,-26.28 9.93,-34.12 -6.3,-7.84 -1.26,-21.79 3.44,-21.72 4.7,0.07 9.87,-4.56 8.41,5.38 -1.46,9.94 -11.88,10 -11.88,10 0,0 9,6.66 8.26,16.41 0,0 5.15,-4.43 8.17,0.67 5.52,9.09 -7.28,14.72 -9.42,10.31 0,0 -27.12,19.19 -20.61,46.82 l -1.51,2.25 c 0.19,2.24 0.31,3.57 0.31,3.57 l -2.11,-0.91 -2.42,3.5 a 84.71,84.71 0 0 1 -0.62,12 l -6.47,-9.58 c 6.54,-27.63 -20.61,-46.83 -20.61,-46.83 -1.98,4.53 -14.75,-1.12 -9.2,-10.2 z"
     fill="#e0e0e0"
     opacity="0.2"
     style="isolation:isolate"
     id="path1152" />
  <polygon
     points="102.62,606.25 95.93,538.25 171.45,538.25 164.73,606.25 "
     fill="#e6e6e6"
     id="polygon1154"
     transform="matrix(-1,0,0,1,818.62823,0)" />
  <rect
     x="-726.0282"
     y="530.75"
     width="82.150002"
     height="15.01"
     fill="#f0f0f0"
     id="rect1156"
     transform="scale(-1,1)" />
  <polygon
     points="202.52,465.95 211.69,465.95 192.94,275.46 184.6,275.88 "
     fill="#c2c4c6"
     id="polygon1188"
     transform="matrix(-1,0,0,1,818.62823,0)" />
  <polygon
     points="222.11,463.45 229.62,463.45 219.19,275.46 210.03,275.88 "
     fill="#c2c4c6"
     id="polygon1190"
     transform="matrix(-1,0,0,1,818.62823,0)" />
  <polygon
     points="199.6,640.6 199.6,479.29 213.36,479.29 208.78,640.6 "
     fill="#c2c4c6"
     id="polygon1192"
     transform="matrix(-1,0,0,1,818.62823,0)" />
  <polygon
     points="251.71,639.76 247.96,479.29 261.71,479.29 260.88,639.76 "
     fill="#c2c4c6"
     id="polygon1194"
     transform="matrix(-1,0,0,1,818.62823,0)" />
  <polygon
     points="283.8,640.18 287.55,479.7 273.8,479.7 274.63,640.18 "
     fill="#c2c4c6"
     id="polygon1196"
     transform="matrix(-1,0,0,1,818.62823,0)" />
  <polygon
     points="353.41,640.18 353.83,480.96 340.07,480.96 344.24,640.18 "
     fill="#c2c4c6"
     id="polygon1198"
     transform="matrix(-1,0,0,1,818.62823,0)" />
  <rect
     x="-620.68823"
     y="460.10999"
     width="72.940002"
     height="21.67"
     fill="#2e3135"
     id="rect1200"
     transform="scale(-1,1)" />
  <rect
     x="-547.74823"
     y="460.10999"
     width="85.449997"
     height="21.67"
     fill="#3f4347"
     id="rect1202"
     transform="scale(-1,1)" />
  <polygon
     points="280.47,623.09 300.06,623.09 300.06,603.92 280.47,606 "
     fill="#f9b499"
     id="polygon1204"
     transform="matrix(-1,0,0,1,818.62823,0)" />
  <path
     d="m 538.99823,638.24 v -16.4 l -20.48,-0.26 -22.89,12.08 a 3.93,3.93 0 0 0 -2.09,3.47 v 0 a 3.93,3.93 0 0 0 3.89,3.92 l 38.35,0.35 a 3.16,3.16 0 0 0 3.22,-3.16 z"
     fill="#3d51c9"
     id="path1206" />
  <polygon
     points="370.5,622.67 390.09,622.67 390.09,603.5 370.5,605.59 "
     fill="#f9b499"
     id="polygon1208"
     transform="matrix(-1,0,0,1,818.62823,0)" />
  <path
     d="m 448.95823,637.82 v -16.4 l -20.48,-0.26 -22.85,12.08 a 3.92,3.92 0 0 0 -2.09,3.47 v 0 a 3.92,3.92 0 0 0 3.89,3.92 l 38.35,0.36 a 3.17,3.17 0 0 0 3.18,-3.17 z"
     fill="#3d51c9"
     id="path1210" />
  <polygon
     points="150.42,640.6 184.18,390.5 177.51,390.5 144.17,640.6 "
     fill="#9ea0a3"
     id="polygon1212"
     transform="matrix(-1,0,0,1,818.62823,0)" />
  <polygon
     points="259.21,640.6 225.45,390.5 232.12,390.5 265.46,640.6 "
     fill="#9ea0a3"
     id="polygon1214"
     transform="matrix(-1,0,0,1,818.62823,0)" />
  <rect
     x="-657.36823"
     y="527.64001"
     width="85.870003"
     height="6.6700001"
     fill="#9ea0a3"
     id="rect1216"
     transform="scale(-1,1)" />
  <polygon
     points="477.62,640.6 511.39,390.5 504.72,390.5 471.37,640.6 "
     fill="#9ea0a3"
     id="polygon1218"
     transform="matrix(-1,0,0,1,818.62823,0)" />
  <polygon
     points="586.41,640.6 552.65,390.5 559.32,390.5 592.67,640.6 "
     fill="#9ea0a3"
     id="polygon1220"
     transform="matrix(-1,0,0,1,818.62823,0)" />
  <rect
     x="-330.16824"
     y="527.64001"
     width="85.870003"
     height="6.6700001"
     fill="#9ea0a3"
     id="rect1222"
     transform="scale(-1,1)" />
  <polygon
     points="292.97,278.38 181.26,280.88 180.01,256.29 292.14,252.96 "
     fill="#2e3135"
     id="polygon1224"
     transform="matrix(-1,0,0,1,818.62823,0)" />
  <rect
     x="-661.53821"
     y="382.17001"
     width="438.07999"
     height="13.34"
     rx="6.6700001"
     fill="#e1e1e2"
     id="rect1226"
     transform="scale(-1,1)" />
  <path
     d="m 549.82823,613.92 h -52.52 l -8.75,-115 c 0,0 -0.42,-16.67 0.83,-24.59 0,0 -21.67,14.17 -26.67,16.67 l 1.53,114.41 c 0,0 -35.3,8.13 -51.55,3.13 l -5.84,-124.63 c 0,0 -4.16,-31.26 20,-51.27 l 44,-36.94 114.14,-0.39 c 0,0 12,45.67 -12.63,71.93 l -24.55,24.46 a 9.78,9.78 0 0 0 -2.87,7.36 z"
     fill="#2b2b2d"
     id="path1228" />
  <path
     d="m 489.38823,474.29 c 0,0 -1.25,-15 10.42,-32.1 l 22.51,-37.1 c 0,0 -47.41,37.75 -66.15,58.75 a 26.33,26.33 0 0 0 -6.68,17.83 l 1.61,126 a 107.89,107.89 0 0 0 13.15,-2.32 l -1.53,-114.35 z"
     opacity="0.2"
     id="path1230" />
  <path
     d="m 519.19823,258.88 44.43,10.33 c 0,0 21.67,0.42 28.34,23.76 l 9.8,51.48 -23.55,16.88 -19.33,20.81 h -123.26 l 6.7,-81.25 c 0,0 6.26,-22.63 49.4,-32.36 z"
     fill="#3d51c9"
     id="path1232" />
  <path
     d="m 556.49823,291.72 2,35.76 0.35,54.66 h -30.72 c 0,0 19.2,-53.32 28.37,-90.42 z"
     opacity="0.2"
     id="path1234" />
  <path
     d="m 470.24823,382.14 h -19.29 c 0,0 12.17,-42.07 12.59,-75.42 z"
     opacity="0.2"
     id="path1236" />
  <rect
     x="-458.12823"
     y="261.29001"
     width="140.05"
     height="96.290001"
     rx="10.48"
     fill="#2b2b2d"
     id="rect1238"
     transform="scale(-1,1)" />
  <rect
     x="-458.12823"
     y="261.29001"
     width="140.05"
     height="96.290001"
     rx="10.34"
     opacity="0.2"
     id="rect1240"
     transform="scale(-1,1)" />
  <path
     d="m 380.43823,242.27 a 1.91,1.91 0 0 0 0.54,1.15 2,2 0 0 0 1.13,0.58 l 13.08,1.87 c 0,0 -4.17,0.83 -4.17,3.33 0,0 -0.83,1.67 1.67,3.34 a 4.84,4.84 0 0 0 0.42,5.42 c 0,0 -1.07,2.68 0.5,3.42 l 29.51,-0.09 c 0,0 -10,-18.76 -26.26,-20.84 l -14,-0.35 h -0.44 a 2,2 0 0 0 -1.98,2.17 z"
     fill="#f9b499"
     id="path1242" />
  <path
     d="m 380.43823,242.27 a 1.91,1.91 0 0 0 0.54,1.15 2,2 0 0 0 1.13,0.58 l 13.08,1.87 a 20.41,20.41 0 0 1 12.51,3.33 c -2.92,-5.83 -15.84,-5.83 -15.84,-5.83 -5.89,-0.42 -8.17,-1.9 -9,-3.27 h -0.44 a 2,2 0 0 0 -1.98,2.17 z"
     fill="#f7a48b"
     id="path1244" />
  <path
     d="m 394.35823,253.37 6.27,6.25 c 0,0 1.43,1.43 8,1.76"
     fill="none"
     stroke="#f7a48b"
     stroke-miterlimit="10"
     id="path1246" />
  <path
     d="m 491.88823,253.37 v 17.3 a 13.55,13.55 0 0 0 27.1,0 V 244.2 l -4.4,-1.85 z"
     fill="#f9b499"
     id="path1248" />
  <path
     d="m 491.88823,253.37 v 12.31 c 3.71,-0.17 13.63,-1.85 19.8,-14.66 z"
     fill="#f7a48b"
     id="path1250" />
  <ellipse
     cx="-481.88824"
     cy="226.49001"
     rx="7.5"
     ry="10.63"
     fill="#3d51c9"
     id="ellipse1252"
     transform="scale(-1,1)" />
  <ellipse
     cx="-482.71823"
     cy="227.32001"
     rx="5.4200001"
     ry="7.6799998"
     opacity="0.2"
     id="ellipse1254"
     transform="scale(-1,1)" />
  <rect
     x="-567.74213"
     y="14.367347"
     width="38.759998"
     height="55.849998"
     rx="19.379999"
     transform="matrix(-0.93685543,-0.34971689,-0.34971689,0.93685543,0,0)"
     fill="#f9b499"
     id="rect1256" />
  <path
     d="m 528.25823,238.6 c 0,0 10.58,-12.88 3,-30.88 a 8.21,8.21 0 0 0 -3.14,-3.79 5.68,5.68 0 0 0 -6.25,-0.16 c 0,0 0,-0.23 -0.09,-0.61 a 11.76,11.76 0 0 0 -13.85,-9.49 51.91,51.91 0 0 1 -16.3,0.33 18.89,18.89 0 0 1 -2.69,-0.56 c -3.13,-0.86 -13.41,-2.65 -14.11,11.12 0,0 -2.45,7.25 8.57,12.59 l 1.67,-3.54 a 16.5,16.5 0 0 1 3.35,-4.1 c 0,0 11.41,9.64 25.59,7.14 l 1.6,5 z"
     fill="#2b2b2d"
     id="path1258" />
  <path
     d="m 519.62823,235 h -6 v 12.09 h 6 a 6,6 0 0 0 6,-6 v 0 a 6,6 0 0 0 -6,-6.09 z"
     fill="#f9b499"
     id="path1260" />
  <path
     d="m 521.06823,222.94 c 0,0 2.55,-21 -13.1,-29.27 l -3.55,0.61 c 0,0 12,12.12 9.12,28.31 z"
     fill="#3d51c9"
     id="path1262" />
  <ellipse
     cx="-516.89819"
     cy="233.16"
     rx="8.3400002"
     ry="11.88"
     fill="#3f4347"
     id="ellipse1264"
     transform="scale(-1,1)" />
  <ellipse
     cx="-521.06824"
     cy="233.16"
     rx="8.3400002"
     ry="10.21"
     fill="#3d51c9"
     id="ellipse1266"
     transform="scale(-1,1)" />
  <ellipse
     cx="-521.69824"
     cy="232.74001"
     rx="5.6300001"
     ry="7.29"
     opacity="0.2"
     id="ellipse1268"
     transform="scale(-1,1)" />
  <ellipse
     cx="-572.9682"
     cy="355.07999"
     rx="31.049999"
     ry="30.84"
     fill="#3d51c9"
     id="ellipse1270"
     transform="scale(-1,1)" />
  <path
     d="m 518.56823,359.24 c 0,0 71.69,39.19 80,2.5 0,0 7.09,-28.34 -24.17,-28.34 0,0 -23.76,-0.42 -58.36,6.67 l -35.41,7.31 a 14.27,14.27 0 0 0 -8.19,5 l -15.49,19 a 1.76,1.76 0 0 0 0.5,2.64 v 0 a 1.75,1.75 0 0 0 2.06,-0.23 l 17.38,-15.79 -3.11,8.29 a 5.73,5.73 0 0 0 0.45,5.05 c 1,1.56 2.87,2.92 6.41,2.09 0,0 2.5,2.5 6.67,0 0,0 3.51,2.1 12.15,2.45 a 1,1 0 0 0 0.74,-1.8 c -1.6,-1.52 -4.12,-3.41 -6.64,-3.16 l 2.5,-5.83 c 0,0 16.68,2.49 22.51,-5.85 z"
     fill="#f9b499"
     id="path1272" />
  <rect
     x="-450.62823"
     y="261.29001"
     width="140.05"
     height="96.290001"
     rx="13.87"
     fill="#2b2b2d"
     id="rect1280"
     transform="scale(-1,1)" />
  <rect
     x="-357.67822"
     y="270.88"
     width="7.0900002"
     height="21.26"
     rx="3.54"
     fill="#3d51c9"
     id="rect1282"
     transform="scale(-1,1)" />
  <rect
     x="-346.83823"
     y="270.88"
     width="7.0900002"
     height="21.26"
     rx="3.54"
     fill="#3d51c9"
     id="rect1284"
     transform="scale(-1,1)" />
  <rect
     x="-335.58823"
     y="270.88"
     width="7.0900002"
     height="21.26"
     rx="3.54"
     fill="#3d51c9"
     id="rect1286"
     transform="scale(-1,1)" />
  <path
     d="m 395.62823,309.23 -15.84,68.35 h 48.32 a 2.51,2.51 0 0 1 2.52,2.52 v 0 a 2.51,2.51 0 0 1 -2.51,2.51 h -70.49 a 6.1,6.1 0 0 1 -6,-7.33 l 13.5,-65.64 z"
     fill="#3d51c9"
     id="path1288" />
  <polygon
     points="422.68,357.42 434.06,357.76 423.02,309.23 "
     opacity="0.2"
     id="polygon1290"
     transform="matrix(-1,0,0,1,818.62823,0)" />
  <path
     d="m 708.34823,515.35 c 10.52,-21.61 29,-32.71 49.66,-26.59 20.66,6.12 23.95,35.06 8.4,42.36 -15.55,7.3 -31,-14 -39.14,-18.4 -8.14,-4.4 -18.92,2.63 -18.92,2.63 z"
     fill="#3d51c9"
     id="path1292" />
  <path
     d="m 698.16823,573 c 0,-2.61 0.17,-5.22 0.26,-7.83 q 0.27,-7.8 0.56,-15.59 c 0.34,-9.52 1.37,-18.85 5.3,-27.63 a 42.94,42.94 0 0 1 16.68,-19.21 35.17,35.17 0 0 1 8.77,-3.79 20.42,20.42 0 0 1 10.23,-5.63 41.59,41.59 0 0 1 14.59,-0.38 c 0.19,0 0.17,0.31 0,0.27 a 34.88,34.88 0 0 0 -13.79,1 28.18,28.18 0 0 0 -5.56,2.15 25.17,25.17 0 0 0 -3.21,2 29.63,29.63 0 0 1 12.68,0.12 27.63,27.63 0 0 1 4.4,1.45 13.25,13.25 0 0 1 3.44,-0.31 21.34,21.34 0 0 1 4.49,0.65 33.25,33.25 0 0 1 8.53,3.73 c 0.16,0 0,0.31 -0.15,0.22 a 32.47,32.47 0 0 0 -8.31,-3.22 29.56,29.56 0 0 0 -4.29,-0.62 23.42,23.42 0 0 0 -2.37,0 27.48,27.48 0 0 1 13.4,13.35 c 0,0.16 -0.16,0.31 -0.24,0.14 a 25.37,25.37 0 0 0 -17.09,-13.69 c -0.47,-0.1 -0.94,-0.16 -1.4,-0.25 0.11,0.69 0.18,1.39 0.22,2.08 0.15,1.05 0.33,2.1 0.53,3.14 a 53.15,53.15 0 0 0 1.68,6.33 50.69,50.69 0 0 0 2.59,6.13 29.23,29.23 0 0 0 3.52,5.96 0.15,0.15 0 0 1 0.05,0.2 0.16,0.16 0 0 1 -0.2,0 0.16,0.16 0 0 1 -0.06,-0.08 c -1.25,-2 -2.7,-3.75 -3.84,-5.78 a 42.91,42.91 0 0 1 -2.81,-6 40.17,40.17 0 0 1 -1.81,-6.48 35,35 0 0 1 -0.54,-3.51 7.84,7.84 0 0 1 -0.15,-2.16 28.7,28.7 0 0 0 -7.35,-0.14 c 0.92,5.16 1.9,10.54 4.8,15 0.09,0.14 -0.17,0.29 -0.26,0.13 a 61.35,61.35 0 0 1 -3.62,-7.37 28.28,28.28 0 0 1 -1.81,-7.68 34.27,34.27 0 0 0 -12.17,4.07 40.36,40.36 0 0 0 -16.23,17.75 67.17,67.17 0 0 0 -6,25.35 c -0.69,11 -0.83,22.17 -1.94,33.18 0,0.72 -1.21,1 -1.34,0.14 a 41.44,41.44 0 0 1 -0.18,-7.19 z"
     fill="#2b2b2d"
     id="path1294" />
  <path
     d="m 722.47823,500.88 a 12.6,12.6 0 0 1 2.39,-2.16 c 0.87,-0.7 1.81,-1.39 2.68,-2 a 19.83,19.83 0 0 1 6,-2.77 c 0.18,0 0.26,0.24 0,0.27 a 15.8,15.8 0 0 0 -5.88,2.9 25.37,25.37 0 0 0 -2.55,2.05 14.63,14.63 0 0 1 -2.41,2 c -0.14,0.05 -0.34,-0.17 -0.23,-0.29 z"
     fill="#2b2b2d"
     id="path1296" />
  <path
     d="m 756.02823,508.72 a 64.2,64.2 0 0 1 4.84,6.3 40.05,40.05 0 0 1 3.62,7.12 c 0,0 -0.09,0.1 -0.13,0 a 84.91,84.91 0 0 0 -8.49,-13.35 c -0.15,-0.02 0.05,-0.22 0.16,-0.07 z"
     fill="#2b2b2d"
     id="path1298" />
  <path
     d="m 733.40823,506.58 a 15.4,15.4 0 0 0 1.2,3.89 25.44,25.44 0 0 0 2.02,3.53 c 0,0 0,0.15 -0.11,0 a 14,14 0 0 1 -3.35,-7.41 c -0.05,-0.12 0.23,-0.19 0.24,-0.01 z"
     fill="#2b2b2d"
     id="path1300" />
  <path
     d="m 699.62823,515.87 c 0,0 -14.89,-18.71 -43.7,-12.08 -27.3,6.32 -39.84,56.39 -12.31,62.39 27.53,6 22.82,-40.3 32.87,-48.23 7.38,-5.76 18.01,-4.52 23.14,-2.08 z"
     fill="#3d51c9"
     id="path1302" />
  <path
     d="m 633.82823,531.15 a 56.62,56.62 0 0 1 5.92,-4.54 26,26 0 0 1 6.31,-3.15 39.57,39.57 0 0 1 3.74,-4.82 37.57,37.57 0 0 1 8.7,-6.92 h -0.87 a 43.92,43.92 0 0 0 -4.59,0 25.12,25.12 0 0 0 -8.85,2.21 c -0.16,0 -0.29,-0.18 -0.13,-0.25 a 40.81,40.81 0 0 1 8.86,-2.68 25,25 0 0 1 4.49,-0.38 13.92,13.92 0 0 1 2.41,0.14 h 0.47 a 38.14,38.14 0 0 1 8.31,-3 4.77,4.77 0 0 1 -0.8,-0.22 38.06,38.06 0 0 0 -4.25,-0.71 33.46,33.46 0 0 0 -8.6,0.13 c -0.19,0 -0.22,-0.24 0,-0.25 a 53.69,53.69 0 0 1 8.69,-0.37 36.1,36.1 0 0 1 7.24,0.95 38.71,38.71 0 0 1 5.25,-0.6 c 10,-0.44 20.94,3.31 27.17,11.55 6.23,8.24 7.37,19.23 8.45,29.19 a 221.37,221.37 0 0 1 0.94,41.82 c 0,0.81 -1.21,0.67 -1.24,-0.11 -0.38,-11.81 -0.8,-23.54 -1.92,-35.39 -0.53,-5.43 -1.11,-10.86 -2,-16.3 a 48.19,48.19 0 0 0 -4,-13.43 24.52,24.52 0 0 0 -9.69,-10.43 32.54,32.54 0 0 0 -13.74,-4.24 37.43,37.43 0 0 0 -12.9,1.21 8.45,8.45 0 0 1 0,2.56 14,14 0 0 1 -0.63,3.13 16,16 0 0 1 -1.2,2.79 c -0.52,1 -1.19,1.81 -1.81,2.8 0,0.15 -0.32,0 -0.21,-0.16 a 13.23,13.23 0 0 0 2.28,-5.68 25.68,25.68 0 0 0 0.35,-2.91 v -2.23 a 38.15,38.15 0 0 0 -12.55,6.63 25.85,25.85 0 0 0 -2,1.81 14.11,14.11 0 0 1 2.45,3 29.52,29.52 0 0 1 2.55,4.56 38.79,38.79 0 0 1 2.73,9.87 c 0,0.18 -0.23,0.24 -0.25,0 a 28.76,28.76 0 0 0 -3.28,-9.47 38.19,38.19 0 0 0 -2.55,-4.2 c -0.47,-0.69 -1,-1.38 -1.5,-2.05 -0.28,-0.34 -0.58,-0.7 -0.86,-1.1 a 39.19,39.19 0 0 0 -8.14,11.48 v 0 a 19.57,19.57 0 0 1 3.36,4.85 44,44 0 0 1 2.68,5.74 97.15,97.15 0 0 1 3.44,11.72 0.14,0.14 0 0 1 -0.08,0.18 0.15,0.15 0 0 1 -0.19,-0.08 0.17,0.17 0 0 1 0,-0.1 49.2,49.2 0 0 0 -4.16,-11.52 c -0.87,-1.81 -1.81,-3.62 -2.74,-5.32 a 50.71,50.71 0 0 1 -2.69,-5 37.21,37.21 0 0 0 -3.28,13.31 c 0,0.19 -0.29,0.17 -0.27,0 a 46.6,46.6 0 0 1 6.44,-20.42 55.29,55.29 0 0 0 -5.19,2.39 29.19,29.19 0 0 0 -6,4.18 c -0.03,0.16 -0.21,0 -0.07,-0.17 z"
     fill="#2b2b2d"
     id="path1304" />
  <path
     d="m 654.90823,532.2 c 0.85,2.85 1.94,5.6 2.72,8.46 a 32.75,32.75 0 0 1 1.27,8.46 h -0.13 a 83,83 0 0 0 -4.14,-16.82 0.14866069,0.14866069 0 1 1 0.28,-0.1 z"
     fill="#2b2b2d"
     id="path1306" />
  <path
     d="m 636.68823,525.18 a 16.35,16.35 0 0 1 3.83,-2.72 25.83,25.83 0 0 1 4.4,-1.56 c 0.16,0 0.21,0.22 0,0.26 a 17.24,17.24 0 0 0 -4.29,1.84 30.26,30.26 0 0 0 -3.89,2.39 c 0,0 -0.11,-0.14 -0.05,-0.21 z"
     fill="#2b2b2d"
     id="path1308" />
  <path
     d="m 685.49823,490.88 c 0,0 -2.76,-33.61 -27.75,-44.49 -20.86,-9.06 -32.81,14.34 -18.1,28.7 11.98,11.61 31.12,6.37 45.85,15.79 z"
     fill="#3d51c9"
     id="path1310" />
  <path
     d="m 644.31823,452.89 a 106.53,106.53 0 0 1 11.12,5.27 81,81 0 0 1 8.62,5.72 c -0.42,-0.85 -0.78,-1.81 -1.2,-2.57 a 42.78,42.78 0 0 0 -2.12,-3.8 36,36 0 0 0 -5.43,-7 c -0.13,-0.1 0,-0.3 0.2,-0.18 a 57.18,57.18 0 0 1 5.79,6.74 42.46,42.46 0 0 1 2.38,3.8 15.72,15.72 0 0 1 1.68,3.88 l 0.27,0.2 a 82.91,82.91 0 0 1 11.94,11.68 3.52,3.52 0 0 0 -0.22,-1 c -0.47,-1.65 -1,-3.26 -1.52,-4.89 a 41.66,41.66 0 0 0 -4.51,-9.8 0.13,0.13 0 0 1 0.05,-0.18 0.13,0.13 0 0 1 0.18,0.05 77.18,77.18 0 0 1 5.24,9.57 37.17,37.17 0 0 1 1.81,5 21.48,21.48 0 0 1 0.81,3.37 c 1.09,1.37 2.18,2.77 3.17,4.21 10.74,15.27 16.12,33.74 17.4,52.23 a 154.88,154.88 0 0 1 0.29,16.55 104.23,104.23 0 0 1 -1.46,16.63 0.31,0.31 0 0 1 -0.4,0.18 0.32,0.32 0 0 1 -0.2,-0.27 c 0.11,-4.86 0.62,-9.71 0.71,-14.49 a 142.33,142.33 0 0 0 -0.47,-14.6 136.32,136.32 0 0 0 -5.44,-28.59 102.3,102.3 0 0 0 -12.67,-26.89 c -1.05,-0.22 -2.1,-0.51 -3.14,-0.76 l -3.74,-1 a 38.17,38.17 0 0 1 -7,-2.55 c -0.16,0 0,-0.33 0.15,-0.24 a 22,22 0 0 0 7.06,2.45 c 1.95,0.38 4,0.63 5.94,1.08 q -2.72,-4 -5.81,-7.64 a 43.07,43.07 0 0 1 -14.17,-1.05 60.71,60.71 0 0 1 -7.24,-2.26 c -2.5,-1 -4.87,-2.21 -7.34,-3.24 -0.18,0 0,-0.35 0.11,-0.26 a 41.93,41.93 0 0 0 14.47,4.76 88,88 0 0 0 13.47,1.1 c -1.81,-2 -3.62,-4 -5.56,-5.88 a 65.59,65.59 0 0 0 -23,-15 c -0.48,-0.13 -0.38,-0.4 -0.22,-0.33 z"
     fill="#2b2b2d"
     id="path1312" />
  <path
     d="m 664.62823,453 a 36.79,36.79 0 0 1 3.06,4.47 24.22,24.22 0 0 1 2.21,5.22 h -0.1 c -0.84,-1.65 -1.54,-3.36 -2.38,-5 a 25.47,25.47 0 0 0 -3,-4.55 c -0.07,-0.09 0.13,-0.29 0.21,-0.14 z"
     fill="#2b2b2d"
     id="path1314" />
  <path
     d="m 641.45823,464.19 a 25.51,25.51 0 0 0 5.12,2.13 44.63,44.63 0 0 0 5.22,1.4 v 0.14 a 25.38,25.38 0 0 1 -5.44,-1.17 47.52,47.52 0 0 1 -5,-2.27 c -0.25,-0.11 -0.1,-0.32 0.1,-0.23 z"
     fill="#2b2b2d"
     id="path1316" />
  <path
     d="m 704.83823,484.83 c 0.14,1.47 3.78,-12.2 24.9,-24.32 19.28,-11 42.1,-39.66 23.38,-57.77 -15.2,-14.48 -55.2,17.26 -48.28,82.09 z"
     fill="#3d51c9"
     id="path1318" />
  <path
     d="m 690.34823,563.13 a 370.63,370.63 0 0 1 3.35,-42.48 191,191 0 0 1 8.93,-38 c 1.57,-4.45 3.37,-8.82 5.3,-13.13 a 32.23,32.23 0 0 1 0,-5 c 0.11,-2.16 0.31,-4.31 0.51,-6.45 0.2,-2.14 0.4,-4.29 0.67,-6.43 0.27,-2.14 0.71,-4.27 0.8,-6.41 a 0.13,0.13 0 0 1 0.12,-0.13 0.13,0.13 0 0 1 0.13,0.13 v 0 a 44.6,44.6 0 0 0 -0.74,6.81 c -0.16,2.07 -0.29,4.15 -0.34,6.23 -0.05,2.08 0,4.15 0,6.23 v 2.35 q 3,-6.3 6.42,-12.36 c -1.43,-8.77 0.44,-17.91 2.21,-26.48 0,-0.18 0.31,0 0.27,0 a 74.65,74.65 0 0 0 -1.35,13.54 c 0,3.62 0,7.25 0.11,10.87 0.51,-0.87 1,-1.72 1.52,-2.57 q 4.11,-6.74 8.78,-13.13 a 20.65,20.65 0 0 1 0.2,-6.23 50,50 0 0 1 1.54,-6.83 q 1,-3.35 2.34,-6.59 c 0.9,-2.23 2.13,-4.33 3,-6.56 a 0.13,0.13 0 0 1 0.17,-0.06 0.13,0.13 0 0 1 0.07,0.17 33.47,33.47 0 0 0 -2.52,6.61 59.45,59.45 0 0 0 -1.72,6.58 q -0.68,3.33 -1.12,6.7 c -0.22,1.48 -0.35,3 -0.6,4.52 a 161.62,161.62 0 0 1 14.79,-17.22 c 0.13,-0.13 0.31,0 0.19,0.2 a 196.64,196.64 0 0 0 -21.48,29.28 l -0.69,1.18 c 1.18,-0.72 2.5,-1.3 3.62,-1.92 l 6.16,-3.39 c 2,-1.06 4,-2.17 6,-3.27 1,-0.57 2,-1.16 3.08,-1.69 a 25,25 0 0 0 3.62,-2 c 0.15,-0.11 0.33,0.13 0.15,0.22 -2,1.12 -3.82,2.79 -5.8,4 -1.98,1.21 -4,2.48 -6,3.62 -3.75,2.1 -7.82,3.62 -11.53,5.77 -2.56,4.48 -4.93,9.06 -7.1,13.78 q 3.36,-2.14 6.86,-4.11 c 1.49,-0.83 3,-1.66 4.51,-2.46 a 22.76,22.76 0 0 0 4.26,-2.57 c 0.14,-0.11 0.32,0 0.2,0.2 a 40.36,40.36 0 0 1 -8.13,5.65 c -2.72,1.59 -5.44,3.11 -8.28,4.51 a 157.69,157.69 0 0 0 -6.2,15.19 c -8.89,25.17 -12.15,51.92 -13.71,78.46 -0.47,7.92 -0.71,15.83 -0.81,23.76 -0.1,7.93 0.32,15.81 0.3,23.73 a 0.21,0.21 0 0 1 -0.41,0 c -1,-7 -1.13,-14.17 -1.43,-21.23 -0.3,-7.06 -0.35,-14.4 -0.22,-21.59 z"
     fill="#2b2b2d"
     id="path1320" />
  <path
     d="m 728.77823,449.12 a 101.76,101.76 0 0 0 11.22,-5.81 116.71,116.71 0 0 0 10.63,-6.76 c 0,0 0.13,0 0,0.09 a 87.14,87.14 0 0 1 -10.23,7.25 105.23,105.23 0 0 1 -11.59,5.54 c -0.07,0 -0.18,-0.24 -0.03,-0.31 z"
     fill="#2b2b2d"
     id="path1322" />
  <path
     d="m 722.62823,420.65 c 0.32,-1.23 0.7,-2.42 1.12,-3.62 a 0.09,0.09 0 0 1 0,-0.12 c 0.27,-0.69 0.54,-1.36 0.83,-2 a 1.13,1.13 0 0 1 0,-0.26 l 0.17,-0.38 v 0 l -0.22,0.69 a 2.62,2.62 0 0 1 -0.11,0.4 99.1,99.1 0 0 0 -3.13,14.34 0.13,0.13 0 0 1 -0.13,0.13 0.12,0.12 0 0 1 -0.12,-0.13 48.43,48.43 0 0 1 1.59,-9.05 z"
     fill="#2b2b2d"
     id="path1324" />
  <polygon
     points="149.07,586.12 144.45,640.62 95.01,640.62 90.4,586.12 88.89,568.24 150.57,568.24 "
     fill="#2b2b2d"
     id="polygon1326"
     transform="matrix(-1,0,0,1,818.62823,0)" />
  <polygon
     points="149.07,586.12 90.4,586.12 88.89,568.24 150.57,568.24 "
     opacity="0.2"
     id="polygon1328"
     transform="matrix(-1,0,0,1,818.62823,0)" />
  <rect
     x="-734.5882"
     y="561.07001"
     width="71.379997"
     height="17.15"
     fill="#2b2b2d"
     id="rect1330"
     transform="scale(-1,1)" />
</svg>
